{
  "accessors": [
    {
      "bufferView": 1,
      "componentType": 5126,
      "count": 2536,
      "max": [
        8.3252429962158203,
        0.30000099539756775,
        6.3800969123840332
      ],
      "min": [
        -8.4320392608642578,
        -0.30000001192092896,
        0.025729000568389893
      ],
      "type": "VEC3"
    },
    {
      "bufferView": 1,
      "byteOffset": 30432,
      "componentType": 5126,
      "count": 2536,
      "max": [
        6.0000002122251317e-06,
        1,
        1.9999999949504854e-06
      ],
      "min": [
        -6.6000000515487045e-05,
        -1,
        -1.9999999949504854e-06
      ],
      "type": "VEC3"
    },
    {
      "bufferView": 0,
      "componentType": 5125,
      "count": 6024,
      "max": [
        2535
      ],
      "min": [
        0
      ],
      "type": "SCALAR"
    },
    {
      "bufferView": 1,
      "byteOffset": 60864,
      "componentType": 5126,
      "count": 8192,
      "max": [
        8.3753852844238281,
        0.30000099539756775,
        6.4300971031188965
      ],
      "min": [
        -8.5019598007202148,
        -0.30000001192092896,
        -0.024356000125408173
      ],
      "type": "VEC3"
    },
    {
      "bufferView": 1,
      "byteOffset": 159168,
      "componentType": 5126,
      "count": 8192,
      "max": [
        0.99149644374847412,
        0.99790477752685547,
        0.99149835109710693
      ],
      "min": [
        -0.99150413274765015,
        -0.99790477752685547,
        -0.99148350954055786
      ],
      "type": "VEC3"
    },
    {
      "bufferView": 0,
      "byteOffset": 24096,
      "componentType": 5125,
      "count": 43008,
      "max": [
        8191
      ],
      "min": [
        0
      ],
      "type": "SCALAR"
    }
  ],
  "asset": {
    "extras": {
      "author": "adorezooey (https://sketchfab.com/adorezooey)",
      "license": "CC-BY-4.0 (http://creativecommons.org/licenses/by/4.0/)",
      "source": "https://sketchfab.com/3d-models/happy-valentines-51ec650606d841eeb80a5b95d5d4a19a",
      "title": "Happy Valentines"
    },
    "generator": "Sketchfab-6.22.0",
    "version": "2.0"
  },
  "bufferViews": [
    {
      "buffer": 0,
      "byteLength": 196128,
      "byteOffset": 0,
      "name": "floatBufferViews",
      "target": 34963
    },
    {
      "buffer": 0,
      "byteLength": 257472,
      "byteOffset": 196128,
      "byteStride": 12,
      "name": "floatBufferViews",
      "target": 34962
    }
  ],
  "buffers": [
    {
      "byteLength": 453600,
      "uri": "scene.bin"
    }
  ],
  "materials": [
    {
      "doubleSided": true,
      "emissiveFactor": [
        0,
        0,
        0
      ],
      "name": "HappyValentines",
      "pbrMetallicRoughness": {
        "baseColorFactor": [
          0.80000000000000004,
          0,
          0,
          1
        ],
        "metallicFactor": 0,
        "roughnessFactor": 0.59999999999999998
      }
    }
  ],
  "meshes": [
    {
      "primitives": [
        {
          "attributes": {
            "NORMAL": 1,
            "POSITION": 0
          },
          "indices": 2,
          "material": 0,
          "mode": 4
        }
      ]
    },
    {
      "primitives": [
        {
          "attributes": {
            "NORMAL": 4,
            "POSITION": 3
          },
          "indices": 5,
          "material": 0,
          "mode": 4
        }
      ]
    }
  ],
  "nodes": [
    {
      "children": [
        1
      ],
      "name": "RootNode (gltf orientation matrix)",
      "rotation": [
        -0.70710678118654746,
        -0,
        -0,
        0.70710678118654757
      ]
    },
    {
      "children": [
        2
      ],
      "name": "RootNode (model correction matrix)"
    },
    {
      "children": [
        3,
        4
      ],
      "name": "Happy_Valentines.obj.cleaner"
    },
    {
      "mesh": 0,
      "name": ""
    },
    {
      "mesh": 1,
      "name": ""
    }
  ],
  "scene": 0,
  "scenes": [
    {
      "name": "OSG_Scene",
      "nodes": [
        0
      ]
    }
  ]
}

